<?xml version="1.0" encoding="utf-8"?>
<!-- Generator: Adobe Illustrator 24.0.1, SVG Export Plug-In . SVG Version: 6.00 Build 0)  -->
<svg version="1.1" id="master-artboard" xmlns="http://www.w3.org/2000/svg" xmlns:xlink="http://www.w3.org/1999/xlink" x="0px"
	 y="0px" viewBox="0 0 194.1 196.9" style="enable-background:new 0 0 194.1 196.9;" xml:space="preserve">
<style type="text/css">
	.st0{fill:#458BCA;}
</style>
<g>
	<path class="st0" d="M145.5,65.5H48.6l-0.5,96.8L62,176.1h70.6l13.1-13.1V65.5H145.5z M117.9,120.4H75.8c-4,0-7-3-7-7
		c0-4,3.3-7,7-7h42.1c4,0,7,3,7,7C124.9,117.2,121.8,120.4,117.9,120.4z M117.9,92.6H75.8c-4,0-7-3-7-7c0-4,3.3-7,7-7h42.1
		c4,0,7,3,7,7C124.9,89.6,121.8,92.6,117.9,92.6z"/>
	<path class="st0" d="M146.2,48.9C146.2,22,124.2,0,97.3,0S48.4,22,48.4,48.9c0,2.3,0,6.5,0,8.9h97.8
		C146.2,55.4,146.2,51.5,146.2,48.9z M97.1,38.6c-7.7,0-13.8-6.3-13.8-13.8c0-7.7,6.3-13.8,13.8-13.8c7.7,0,13.8,6.3,13.8,13.8
		C110.9,32.5,104.8,38.6,97.1,38.6z M124.9,48.9c-3.7,0-7-3-7-7c0-3.7,3-7,7-7c3.7,0,7,3,7,7S128.9,48.9,124.9,48.9z"/>
	<path class="st0" d="M180.3,162.1c0,0,0-66.9,0-81.6c0-15-13.1-15.7-13.1-15.7h-14.5v97.5l-14.5,34.6h55.9L180.3,162.1z"/>
	<path class="st0" d="M41.2,64.8H26.9c0,0-13.1,0.7-13.1,15.7s0,81.6,0,81.6L0,196.9h55.9l-14.5-34.6L41.2,64.8z"/>
</g>
</svg>
